<?xml version="1.0" encoding="utf-8"?>
<!-- Generator: Adobe Illustrator 23.0.1, SVG Export Plug-In . SVG Version: 6.00 Build 0)  -->
<svg version="1.1" id="Layer_1" xmlns="http://www.w3.org/2000/svg" xmlns:xlink="http://www.w3.org/1999/xlink" x="0px" y="0px"
	 viewBox="0 0 283.5 283.5" style="enable-background:new 0 0 283.5 283.5;" xml:space="preserve">
<style type="text/css">
	.st0{fill:url(#SVGID_1_);stroke:#FFFFFF;stroke-miterlimit:10;}
	.st1{enable-background:new    ;}
	.st2{fill:#FFFFFF;}
</style>
<linearGradient id="SVGID_1_" gradientUnits="userSpaceOnUse" x1="234.2599" y1="260.3956" x2="46.5908" y2="20.4978" gradientTransform="matrix(1 0 0 -1 0 283.89)">
	<stop  offset="0" style="stop-color:#D84598"/>
	<stop  offset="1" style="stop-color:#ED2024"/>
</linearGradient>
<path class="st0" d="M263.6,283.5H19.9c-11,0-19.9-8.9-19.9-19.9V19.9C0,8.9,8.9,0,19.9,0h243.7c11,0,19.9,8.9,19.9,19.9v243.7
	C283.5,274.6,274.6,283.5,263.6,283.5z"/>
<g class="st1">
	<path class="st2" d="M142,178.3c-5.6,10.1-12.4,17.4-20.3,22c-7.9,4.6-17.6,6.9-29,6.9c-7.9,0-15.4-1.5-22.4-4.5
		c-7-3-13.2-7.3-18.6-12.8c-5.3-5.5-9.6-12.1-12.7-19.7c-3.1-7.6-4.7-16-4.7-25.1c0-9.1,1.5-17.5,4.6-25.1
		c3.1-7.6,7.2-14.1,12.5-19.6c5.2-5.5,11.3-9.7,18.1-12.7c6.9-3,14-4.5,21.5-4.5c6,0,11.5,0.7,16.5,2c4.9,1.3,9.4,3.1,13.4,5.4
		c4,2.3,7.5,5.1,10.6,8.3c3.1,3.2,5.8,6.6,8.1,10.3l-22.6,16.6c-1.1-1.8-2.4-3.5-3.8-5.3c-1.4-1.7-3.2-3.3-5.2-4.6
		c-2-1.4-4.4-2.5-7.1-3.3c-2.7-0.8-5.8-1.2-9.3-1.2c-4.2,0-7.9,0.9-11.1,2.6c-3.2,1.7-6,4.1-8.3,7.1c-2.3,3-4.1,6.6-5.3,10.8
		c-1.2,4.2-1.8,8.6-1.8,13.3c0,4.7,0.6,9.2,1.9,13.3c1.3,4.2,3.1,7.7,5.4,10.8c2.4,3,5.3,5.4,8.7,7.2c3.4,1.8,7.3,2.7,11.5,2.7
		c7.3,0,12.9-1.6,16.8-4.7c4-3.1,7.1-7.1,9.6-12L142,178.3z"/>
	<path class="st2" d="M195.9,206.8c-0.2,0.6-0.6,0.9-1,0.9c-0.4,0-0.8-0.3-1-0.9L141.1,84.5h32l22.9,56.4l22.3-56.4h30.5
		L195.9,206.8z"/>
</g>
<g>
	<path class="st2" d="M34.1,228.1c1.5-0.3,3.8-0.5,5.9-0.5c3.3,0,5.4,0.6,6.8,1.9c1.2,1.1,1.9,2.7,1.9,4.5c0,3.1-2,5.2-4.5,6v0.1
		c1.8,0.6,2.9,2.3,3.5,4.8c0.8,3.3,1.3,5.6,1.8,6.5h-3.2c-0.4-0.7-0.9-2.7-1.6-5.7c-0.7-3.3-2-4.5-4.7-4.6h-2.9v10.3h-3.1V228.1z
		 M37.2,238.9h3.1c3.3,0,5.3-1.8,5.3-4.5c0-3.1-2.2-4.4-5.4-4.4c-1.5,0-2.5,0.1-3,0.3V238.9z"/>
	<path class="st2" d="M54.7,243.5c0.1,4.2,2.7,5.9,5.8,5.9c2.2,0,3.5-0.4,4.7-0.9l0.5,2.2c-1.1,0.5-2.9,1.1-5.7,1.1
		c-5.2,0-8.4-3.4-8.4-8.6s3-9.2,8-9.2c5.5,0,7,4.9,7,8c0,0.6-0.1,1.1-0.1,1.4H54.7z M63.8,241.3c0-2-0.8-5-4.3-5
		c-3.1,0-4.5,2.9-4.7,5H63.8z"/>
	<path class="st2" d="M70.2,248.3c0.9,0.6,2.5,1.2,4.1,1.2c2.2,0,3.3-1.1,3.3-2.5c0-1.5-0.9-2.3-3.2-3.1c-3.1-1.1-4.5-2.8-4.5-4.8
		c0-2.7,2.2-5,5.9-5c1.7,0,3.2,0.5,4.2,1.1l-0.8,2.2c-0.7-0.4-1.9-1-3.5-1c-1.8,0-2.8,1.1-2.8,2.3c0,1.4,1,2,3.2,2.9
		c2.9,1.1,4.5,2.6,4.5,5.1c0,3-2.3,5.1-6.4,5.1c-1.9,0-3.6-0.5-4.8-1.2L70.2,248.3z"/>
	<path class="st2" d="M98.7,246.8c0,1.8,0,3.3,0.1,4.6h-2.7l-0.2-2.8h-0.1c-0.8,1.4-2.6,3.2-5.6,3.2c-2.7,0-5.9-1.5-5.9-7.4v-9.9
		h3.1v9.4c0,3.2,1,5.4,3.8,5.4c2.1,0,3.5-1.4,4.1-2.8c0.2-0.5,0.3-1,0.3-1.6v-10.4h3.1V246.8z"/>
	<path class="st2" d="M103.9,239c0-1.8,0-3.2-0.1-4.6h2.7l0.1,2.7h0.1c0.9-1.6,2.5-3.1,5.3-3.1c2.3,0,4.1,1.4,4.8,3.4h0.1
		c0.5-0.9,1.2-1.7,1.9-2.2c1-0.8,2.1-1.2,3.8-1.2c2.2,0,5.6,1.5,5.6,7.4v10h-3v-9.6c0-3.3-1.2-5.2-3.7-5.2c-1.8,0-3.1,1.3-3.7,2.8
		c-0.1,0.4-0.2,1-0.2,1.5v10.5h-3v-10.2c0-2.7-1.2-4.7-3.5-4.7c-1.9,0-3.3,1.5-3.8,3.1c-0.2,0.5-0.2,1-0.2,1.5v10.3h-3V239z"/>
	<path class="st2" d="M134.9,243.5c0.1,4.2,2.7,5.9,5.8,5.9c2.2,0,3.5-0.4,4.7-0.9l0.5,2.2c-1.1,0.5-2.9,1.1-5.7,1.1
		c-5.2,0-8.4-3.4-8.4-8.6s3-9.2,8-9.2c5.5,0,7,4.9,7,8c0,0.6-0.1,1.1-0.1,1.4H134.9z M143.9,241.3c0-2-0.8-5-4.3-5
		c-3.1,0-4.5,2.9-4.7,5H143.9z"/>
	<path class="st2" d="M165.3,240.8v2.3h-8.7v-2.3H165.3z"/>
	<path class="st2" d="M176.5,228.1c1.3-0.3,3.4-0.5,5.6-0.5c3.1,0,5,0.5,6.5,1.7c1.2,0.9,2,2.3,2,4.2c0,2.3-1.5,4.3-4,5.2v0.1
		c2.2,0.6,4.9,2.4,4.9,5.9c0,2-0.8,3.6-2,4.7c-1.7,1.5-4.3,2.2-8.2,2.2c-2.1,0-3.7-0.1-4.7-0.3V228.1z M179.5,237.8h2.8
		c3.2,0,5.1-1.7,5.1-4c0-2.8-2.1-3.9-5.2-3.9c-1.4,0-2.2,0.1-2.7,0.2V237.8z M179.5,249.1c0.6,0.1,1.5,0.1,2.6,0.1
		c3.2,0,6.1-1.2,6.1-4.6c0-3.2-2.8-4.6-6.1-4.6h-2.5V249.1z"/>
	<path class="st2" d="M195.4,226.5h3.1v24.9h-3.1V226.5z"/>
	<path class="st2" d="M219.1,242.8c0,6.3-4.4,9-8.5,9c-4.6,0-8.1-3.4-8.1-8.7c0-5.7,3.7-9,8.4-9
		C215.8,234.1,219.1,237.6,219.1,242.8z M205.6,243c0,3.7,2.1,6.5,5.2,6.5c2.9,0,5.2-2.8,5.2-6.6c0-2.9-1.4-6.5-5.1-6.5
		S205.6,239.7,205.6,243z"/>
	<path class="st2" d="M235.1,250.8c-0.8,0.4-2.6,1-4.9,1c-5.1,0-8.5-3.5-8.5-8.7c0-5.2,3.6-9,9.1-9c1.8,0,3.4,0.5,4.3,0.9l-0.7,2.4
		c-0.7-0.4-1.9-0.8-3.6-0.8c-3.9,0-6,2.9-6,6.4c0,3.9,2.5,6.4,5.9,6.4c1.8,0,2.9-0.5,3.8-0.8L235.1,250.8z"/>
	<path class="st2" d="M241.8,242.2L241.8,242.2c0.5-0.6,1.1-1.3,1.6-1.9l5-5.9h3.7l-6.6,7l7.5,10h-3.8l-5.9-8.1l-1.6,1.8v6.4h-3.1
		v-24.9h3.1V242.2z"/>
</g>
</svg>
